<svg id="Layer_1" data-name="Layer 1" xmlns="http://www.w3.org/2000/svg" width="168.98" height="14.15" viewBox="0 0 168.98 14.15"><defs><style>.cls-1{fill:#fff;}</style></defs><title>logo-text</title><path class="cls-1" d="M8.41,12v2.13H0V.09H2.38V12Z"/><path class="cls-1" d="M10.71,14.11V.09h2.38v14Z"/><path class="cls-1" d="M28.3,2.3,26.94,4A5.43,5.43,0,0,0,23,2.21a4.93,4.93,0,1,0,0,9.86,6,6,0,0,0,3.91-1.7L28.3,11.9a8.28,8.28,0,0,1-5.44,2.3,7.17,7.17,0,0,1-7.31-7.14A7.12,7.12,0,0,1,23,0,8.31,8.31,0,0,1,28.3,2.3Z"/><path class="cls-1" d="M33.07,2.21V6H40V8.16H33.07V12H41v2.13H30.68V.09h10V2.21Z"/><path class="cls-1" d="M53.63,14.11l-7.39-10v10H43.86V.09h2.3L53.64,10.2V.09h2.3v14Z"/><path class="cls-1" d="M69.19,1.45l-.93,2a8.22,8.22,0,0,0-4.08-1.28c-1.36,0-2.29.51-2.29,1.44,0,3.06,7.57,1.44,7.57,6.46,0,2.46-2.21,4.08-5.27,4.08A8.76,8.76,0,0,1,58.48,12l1-2a7.18,7.18,0,0,0,4.76,2c1.62,0,2.63-.59,2.63-1.7,0-3.14-7.57-1.36-7.57-6.37,0-2.38,2-3.91,5.1-3.91A9,9,0,0,1,69.19,1.45Z"/><path class="cls-1" d="M74.54,2.21V6h6.88V8.16H74.54V12h7.91v2.13H72.17V.09h10V2.21Z"/><path class="cls-1" d="M87.63,2.21V6h6.88V8.16H87.63V12h7.91v2.13H85.26V.09h10V2.21Z"/><path class="cls-1" d="M115.51,14.15l-2-4.16H105.4l-2,4.16h-.77L109.05,0h.59l6.46,14.11Zm-2.21-4.93-3.82-8.07-3.66,8.07Z"/><path class="cls-1" d="M118.66,14.07V0h5.61a7.06,7.06,0,1,1,0,14.11h-5.61Zm5.61-.68A6.46,6.46,0,0,0,130.81,7,6.46,6.46,0,0,0,124.27.64h-4.84V13.3h4.84Z"/><polygon class="cls-1" points="147.13 14.15 147.13 1.32 141.27 12.88 135.32 1.32 135.32 14.15 134.56 14.15 134.56 0.04 135.49 0.04 141.27 11.18 146.88 0.04 147.81 0.04 147.81 14.15 147.13 14.15"/><rect class="cls-1" x="152.49" y="0.04" width="0.76" height="14.11"/><polygon class="cls-1" points="168.13 14.15 158.69 1.15 158.69 14.15 157.93 14.15 157.93 0.04 158.78 0.04 168.22 13.05 168.22 0.04 168.98 0.04 168.98 14.15 168.13 14.15"/></svg>