<?xml version="1.0" encoding="utf-8"?>
<!-- Generator: Adobe Illustrator 21.0.0, SVG Export Plug-In . SVG Version: 6.00 Build 0)  -->
<svg version="1.1" id="Capa_1" xmlns="http://www.w3.org/2000/svg" xmlns:xlink="http://www.w3.org/1999/xlink" x="0px" y="0px"
	 viewBox="0 0 26 26" style="enable-background:new 0 0 26 26;" xml:space="preserve">
<style type="text/css">
	.st0{fill:#207347;}
</style>
<g>
	<path class="st0" d="M25.2,3H16v3h3v2h-3v2h3v2h-3v2h3v2h-3v2h3v2h-3v3h9.2c0.5,0,0.8-0.4,0.8-0.9V3.9C26,3.4,25.6,3,25.2,3z
		 M24,20h-4v-2h4V20z M24,16h-4v-2h4V16z M24,12h-4v-2h4V12z M24,8h-4V6h4V8z"/>
	<path class="st0" d="M0,2.9v20.2L15,26V0L0,2.9z M9.5,18.1l-1.7-3.3c-0.1-0.1-0.1-0.3-0.2-0.7h0c0,0.2-0.1,0.4-0.2,0.7l-1.8,3.3
		H2.8L6,13L3.1,8h2.8l1.4,3c0.1,0.2,0.2,0.5,0.3,0.9h0C7.7,11.6,7.8,11.4,8,11l1.6-3h2.5l-3,5l3.1,5.1L9.5,18.1L9.5,18.1z"/>
</g>
</svg>
